<svg width="594" height="49" viewBox="0 0 594 49" fill="none" xmlns="http://www.w3.org/2000/svg">
<path d="M553.969 1.45459H560.423L573.332 23.1819H573.878L586.787 1.45459H593.242L576.423 28.8182V48H570.787V28.8182L553.969 1.45459Z" fill="white"/>
<path d="M514.339 48H508.43L525.521 1.45459H531.339L548.43 48H542.521L528.612 8.81823H528.248L514.339 48ZM516.521 29.8182H540.339V34.8182H516.521V29.8182Z" fill="white"/>
<path d="M466.453 48V1.45459H472.09V43H493.726V48H466.453Z" fill="white"/>
<path d="M418.785 48V1.45459H434.512C438.164 1.45459 441.149 2.11368 443.467 3.43186C445.8 4.73489 447.528 6.50005 448.649 8.72732C449.77 10.9546 450.331 13.4394 450.331 16.1819C450.331 18.9243 449.77 21.4167 448.649 23.6591C447.543 25.9016 445.831 27.6894 443.512 29.0228C441.194 30.341 438.225 31 434.603 31H423.331V26H434.422C436.922 26 438.929 25.5682 440.444 24.7046C441.959 23.841 443.058 22.6743 443.74 21.2046C444.437 19.7197 444.785 18.0455 444.785 16.1819C444.785 14.3182 444.437 12.6516 443.74 11.1819C443.058 9.71217 441.952 8.56065 440.422 7.72732C438.891 6.87883 436.861 6.45459 434.331 6.45459H424.422V48H418.785Z" fill="white"/>
<path d="M396.388 13.0911C396.115 10.7881 395.009 9.00018 393.07 7.72745C391.131 6.45472 388.752 5.81836 385.934 5.81836C383.873 5.81836 382.07 6.15169 380.525 6.81836C378.994 7.48503 377.797 8.40169 376.934 9.56836C376.085 10.735 375.661 12.0608 375.661 13.5456C375.661 14.7881 375.956 15.8562 376.547 16.7502C377.153 17.629 377.926 18.3638 378.865 18.9547C379.805 19.5305 380.79 20.0078 381.82 20.3865C382.85 20.7502 383.797 21.0456 384.661 21.2729L389.388 22.5456C390.6 22.8638 391.949 23.3032 393.434 23.8638C394.934 24.4244 396.365 25.1896 397.729 26.1593C399.108 27.1138 400.244 28.3411 401.138 29.8411C402.032 31.3411 402.479 33.182 402.479 35.3638C402.479 37.879 401.82 40.1517 400.502 42.182C399.199 44.2123 397.29 45.8259 394.775 47.0229C392.275 48.2199 389.237 48.8184 385.661 48.8184C382.328 48.8184 379.441 48.2805 377.002 47.2047C374.578 46.129 372.668 44.629 371.275 42.7047C369.896 40.7805 369.115 38.5456 368.934 36.0002H374.752C374.903 37.7578 375.494 39.2123 376.525 40.3638C377.57 41.5002 378.888 42.3487 380.479 42.9093C382.085 43.4547 383.812 43.7275 385.661 43.7275C387.812 43.7275 389.744 43.379 391.456 42.682C393.168 41.9699 394.525 40.985 395.525 39.7275C396.525 38.4547 397.025 36.9699 397.025 35.2729C397.025 33.7275 396.593 32.4699 395.729 31.5002C394.865 30.5305 393.729 29.7426 392.32 29.1365C390.911 28.5305 389.388 28.0002 387.752 27.5456L382.025 25.9093C378.388 24.8638 375.509 23.3714 373.388 21.432C371.267 19.4926 370.206 16.9547 370.206 13.8184C370.206 11.2123 370.911 8.93957 372.32 7.00018C373.744 5.04563 375.653 3.53048 378.047 2.45472C380.456 1.36381 383.146 0.818359 386.115 0.818359C389.115 0.818359 391.782 1.35624 394.115 2.432C396.449 3.4926 398.297 4.94715 399.661 6.79563C401.04 8.64412 401.767 10.7426 401.843 13.0911H396.388Z" fill="white"/>
<path d="M352.593 1.45459V48H346.957V1.45459H352.593Z" fill="white"/>
<path d="M308.282 48H293.918V1.45459H308.918C313.433 1.45459 317.297 2.38641 320.509 4.25005C323.721 6.09853 326.183 8.75762 327.895 12.2273C329.607 15.6819 330.463 19.8182 330.463 24.6364C330.463 29.4849 329.6 33.6591 327.873 37.1591C326.145 40.644 323.63 43.3258 320.327 45.2046C317.024 47.0682 313.009 48 308.282 48ZM299.554 43H307.918C311.766 43 314.956 42.2576 317.486 40.7728C320.016 39.2879 321.903 37.1743 323.145 34.4319C324.388 31.6894 325.009 28.4243 325.009 24.6364C325.009 20.8788 324.395 17.644 323.168 14.9319C321.941 12.2046 320.107 10.1137 317.668 8.65913C315.229 7.18944 312.191 6.45459 308.554 6.45459H299.554V43Z" fill="white"/>
<path d="M218.91 9.56823V1.45459H257.137V9.56823H242.887V48H233.16V9.56823H218.91Z" fill="white"/>
<path d="M171.645 48V1.45459H190.008C193.523 1.45459 196.523 2.08338 199.008 3.34095C201.508 4.58338 203.41 6.34853 204.713 8.63641C206.031 10.9091 206.69 13.5834 206.69 16.6591C206.69 19.75 206.023 22.4091 204.69 24.6364C203.357 26.8485 201.425 28.5455 198.895 29.7273C196.379 30.9091 193.334 31.5 189.758 31.5H177.463V23.591H188.167C190.046 23.591 191.607 23.3334 192.849 22.8182C194.092 22.3031 195.016 21.5303 195.622 20.5C196.243 19.4697 196.554 18.1894 196.554 16.6591C196.554 15.1137 196.243 13.8107 195.622 12.75C195.016 11.6894 194.084 10.8864 192.826 10.341C191.584 9.78035 190.016 9.50005 188.122 9.50005H181.485V48H171.645ZM196.781 26.8182L208.349 48H197.485L186.167 26.8182H196.781Z" fill="white"/>
<path d="M124.752 48H114.207L130.275 1.45459H142.957L159.002 48H148.457L136.798 12.091H136.434L124.752 48ZM124.093 29.7046H149.002V37.3864H124.093V29.7046Z" fill="white"/>
<path d="M51.125 1.45459H63.2614L76.0795 32.7273H76.625L89.4432 1.45459H101.58V48H92.0341V17.7046H91.6477L79.6023 47.7728H73.1023L61.0568 17.591H60.6705V48H51.125V1.45459Z" fill="white"/>
<path d="M27.3984 14.8411C27.2166 13.0078 26.4363 11.5835 25.0575 10.5684C23.6787 9.55321 21.8075 9.04563 19.4439 9.04563C17.8378 9.04563 16.4818 9.2729 15.3757 9.72745C14.2697 10.1668 13.4212 10.7805 12.8303 11.5684C12.2545 12.3562 11.9666 13.2502 11.9666 14.2502C11.9363 15.0835 12.1106 15.8108 12.4893 16.432C12.8833 17.0532 13.4212 17.5911 14.103 18.0456C14.7848 18.485 15.5727 18.8714 16.4666 19.2047C17.3606 19.5229 18.3151 19.7956 19.3303 20.0229L23.5121 21.0229C25.5424 21.4775 27.406 22.0835 29.103 22.8411C30.8 23.5987 32.2696 24.5305 33.5121 25.6365C34.7545 26.7426 35.7166 28.0456 36.3984 29.5456C37.0954 31.0456 37.4515 32.7653 37.4666 34.7047C37.4515 37.5532 36.7242 40.0229 35.2848 42.1138C33.8606 44.1896 31.8 45.8032 29.103 46.9547C26.4212 48.0911 23.1863 48.6593 19.3984 48.6593C15.6409 48.6593 12.3681 48.0835 9.58026 46.932C6.80753 45.7805 4.64086 44.0759 3.08026 41.8184C1.5348 39.5456 0.724195 36.735 0.648438 33.3865H10.1712C10.2772 34.9471 10.7242 36.2502 11.5121 37.2956C12.3151 38.3259 13.3833 39.1062 14.7166 39.6365C16.0651 40.1517 17.5878 40.4093 19.2848 40.4093C20.9515 40.4093 22.3984 40.1668 23.6257 39.682C24.8681 39.1971 25.8303 38.5229 26.5121 37.6593C27.1939 36.7956 27.5348 35.8032 27.5348 34.682C27.5348 33.6365 27.2242 32.7578 26.603 32.0456C25.9969 31.3335 25.103 30.7275 23.9212 30.2275C22.7545 29.7275 21.3227 29.2729 19.6257 28.8638L14.5575 27.5911C10.6333 26.6365 7.5348 25.1441 5.26207 23.1138C2.98935 21.0835 1.86056 18.3487 1.87571 14.9093C1.86056 12.0911 2.61056 9.62897 4.12571 7.52291C5.65601 5.41685 7.7545 3.77291 10.4212 2.59109C13.0878 1.40927 16.1181 0.818359 19.5121 0.818359C22.9666 0.818359 25.9818 1.40927 28.5575 2.59109C31.1484 3.77291 33.1636 5.41685 34.603 7.52291C36.0424 9.62897 36.7848 12.0684 36.8303 14.8411H27.3984Z" fill="white"/>
</svg>
