<svg width="267" height="42" viewBox="0 0 267 42" fill="none" xmlns="http://www.w3.org/2000/svg">
<path fill-rule="evenodd" clip-rule="evenodd" d="M50.1997 26.83V15.1701C50.1997 11.9503 47.5896 9.3402 44.3698 9.3402C41.15 9.3402 38.5399 11.9503 38.5399 15.1701V26.83C38.5399 30.0497 41.15 32.6599 44.3698 32.6599C47.5896 32.6599 50.1997 30.0497 50.1997 26.83ZM44.3698 0.0123291C35.9984 0.0123291 29.212 6.7987 29.212 15.1701V26.83C29.212 35.2014 35.9984 41.9878 44.3698 41.9878C52.7412 41.9878 59.5276 35.2014 59.5276 26.83V15.1701C59.5276 6.7987 52.7412 0.0123291 44.3698 0.0123291ZM0.0625 1.17831H9.39037H15.2203C22.3038 1.17831 28.0461 6.92063 28.0461 14.0041C28.0461 21.0876 22.3038 26.83 15.2203 26.83H9.39037V40.8218H0.0625V26.83V1.17831ZM15.2203 17.5021H9.39037V10.5062H15.2203C17.1522 10.5062 18.7182 12.0723 18.7182 14.0041C18.7182 15.936 17.1522 17.5021 15.2203 17.5021ZM131.819 26.83V40.8218H141.146V26.83H145.519L151.64 40.8217H160.968L153.947 24.7723C157.471 22.4864 159.802 18.5175 159.802 14.0041C159.802 6.92062 154.06 1.17831 146.976 1.17831H141.146H131.819V26.83ZM146.976 17.5021H141.146V10.5062H146.976C148.908 10.5062 150.474 12.0723 150.474 14.0041C150.474 15.936 148.908 17.5021 146.976 17.5021ZM82.8473 15.1701V26.83C82.8473 30.0497 80.2372 32.6599 77.0174 32.6599C73.7976 32.6599 71.1875 30.0497 71.1875 26.83V15.1701C71.1875 11.9503 73.7976 9.3402 77.0174 9.3402C80.2372 9.3402 82.8473 11.9503 82.8473 15.1701ZM61.8596 15.1701C61.8596 6.7987 68.646 0.0123291 77.0174 0.0123291C85.3888 0.0123291 92.1752 6.7987 92.1752 15.1701V26.83C92.1752 35.2014 85.3888 41.9878 77.0174 41.9878C68.646 41.9878 61.8596 35.2014 61.8596 26.83V15.1701ZM103.835 1.17829H94.5076V31.4939V40.8218H103.835L115.495 40.8218V31.4939H103.835V1.17829ZM160.968 1.17829H170.296H179.624H188.952V10.5062H179.624V40.8218H170.296V10.5062H160.968V1.17829ZM117.827 1.17831H127.155V40.8218H117.827V1.17831ZM200.612 1.17831H191.284V40.8218H200.612V1.17831ZM223.931 1.17831H233.259V40.8218L223.931 40.8218L214.603 21.0001V40.8218H205.276V1.17833H214.603L223.931 21.0001V1.17831ZM257.162 13.9823H266.475C266.475 6.26689 260.221 0.0123291 252.505 0.0123291H251.522C243.408 0.0123291 236.83 6.58989 236.83 14.7037V26.9028C236.83 35.234 243.584 41.9878 251.915 41.9878H254.407C261.362 41.9878 267 36.3498 267 29.3951L267 26.8299V18.668H253.081V26.8299H257.687V29.3951C257.687 31.2063 256.218 32.6745 254.407 32.6745H251.915C248.727 32.6745 246.143 30.0904 246.143 26.9028V14.7037C246.143 11.7335 248.551 9.32563 251.522 9.32563H252.505C255.077 9.32563 257.162 11.4105 257.162 13.9823Z" fill="white"/>
</svg>
