<svg width="80" height="19" viewBox="0 0 80 19" fill="none" xmlns="http://www.w3.org/2000/svg">
<g clip-path="url(#clip0_2143_17516)">
<path d="M27.3175 14.0566C27.3175 16.8344 25.8792 18.3911 22.4097 18.3911H16.8672V0.358887H22.4097C25.8792 0.358887 27.3175 2.03515 27.3175 4.93329V14.0566ZM20.0402 16.0685H21.987C23.5097 16.0685 24.1444 15.35 24.1444 13.7219V5.02893C24.1444 3.42412 23.7005 2.68219 22.1984 2.68219H20.0402V16.0685Z" fill="white"/>
<path d="M38.5062 18.3911L36.6026 12.4285C36.2005 11.2074 35.9253 10.8959 34.9098 10.8959H33.5559V18.3911H30.3828V0.358887H35.9253C38.7388 0.358887 40.4104 1.93965 40.4104 4.69335V6.56142C40.4104 8.74031 39.331 9.74625 37.9771 10.0577C38.887 10.3692 39.2679 10.8237 39.7331 12.1893L41.7849 18.3911H38.5062ZM33.5559 8.57258H35.2906C36.7927 8.57258 37.2367 7.54331 37.2367 6.4659V4.78959C37.2367 3.63997 36.7927 2.68219 35.2906 2.68219H33.5559V8.57258Z" fill="white"/>
<path d="M46.8156 12.8356L46.0539 18.3911H42.7539L45.483 0.358887H52.083L54.812 18.3911H51.512L50.7503 12.8356H46.8156ZM50.4545 10.513L49.3546 2.68219H48.212L47.112 10.513H50.4545Z" fill="white"/>
<path d="M67.1257 13.0989V14.1763C67.1257 16.9541 66.0045 18.75 62.0059 18.75C58.008 18.75 56.8867 16.9541 56.8867 14.1763V4.57368C56.8867 1.7959 58.1981 0 62.0059 0C65.8137 0 67.1257 1.7959 67.1257 4.57368V5.41184H63.9526V4.6692C63.9526 3.5203 63.508 2.32258 62.0059 2.32258C60.5045 2.32258 60.0598 3.5203 60.0598 4.6692V14.0808C60.0598 15.4456 60.5045 16.4274 62.0059 16.4274C63.508 16.4274 63.9526 15.4456 63.9526 14.0808V13.0989H67.1257Z" fill="white"/>
<path d="M79.8992 14.1763C79.8992 16.9541 78.5871 18.75 74.7793 18.75C70.9715 18.75 69.6602 16.9541 69.6602 14.1763V4.57368C69.6602 1.7959 70.9715 0 74.7793 0C78.5871 0 79.8992 1.7959 79.8992 4.57368V14.1763ZM76.7261 4.6692C76.7261 3.5203 76.2814 2.32258 74.7793 2.32258C73.2778 2.32258 72.8332 3.5203 72.8332 4.6692V14.0808C72.8332 15.2304 73.2778 16.4274 74.7793 16.4274C76.2814 16.4274 76.7261 15.2304 76.7261 14.0808V4.6692Z" fill="white"/>
<path d="M6.77488 6.21446H3.25778L0 0.358887H3.5171L6.77488 6.21446Z" fill="white"/>
<path d="M8.52882 9.38204L13.5491 0.358887H10.032L5.01562 9.3749L10.032 18.3909H13.5491L8.53664 9.38204H8.52882Z" fill="white"/>
<path d="M4.51376 10.2788L0 18.3913H3.5171L6.27231 13.4392L4.51376 10.2788Z" fill="white"/>
</g>
<defs>
<clipPath id="clip0_2143_17516">
<rect width="79.9006" height="18.75" fill="white"/>
</clipPath>
</defs>
</svg>
